<?xml version="1.0" encoding="utf-8"?>
<!-- Generator: Adobe Illustrator 21.0.0, SVG Export Plug-In . SVG Version: 6.00 Build 0)  -->
<svg version="1.1" id="Слой_1" xmlns="http://www.w3.org/2000/svg" xmlns:xlink="http://www.w3.org/1999/xlink" x="0px" y="0px"
	 viewBox="0 0 87.1 21.6" style="enable-background:new 0 0 87.1 21.6;" xml:space="preserve">
<g>
	<g>
		<g>
			<path d="M56.6,16.6v-1.8h0.7c0.2,0,0.3,0.1,0.4,0.2c0.1,0.1,0.2,0.2,0.2,0.4c0,0.2-0.1,0.3-0.2,0.4c-0.1,0.1-0.3,0.2-0.4,0.2
				h-0.4v0.7H56.6z M56.8,15.7h0.4c0.1,0,0.2,0,0.3-0.1c0.1-0.1,0.1-0.1,0.1-0.2c0-0.1,0-0.2-0.1-0.2c-0.1-0.1-0.2-0.1-0.3-0.1h-0.4
				V15.7z"/>
			<path d="M59.2,16.6v-1.8h0.7c0.2,0,0.3,0.1,0.4,0.2c0.1,0.1,0.2,0.2,0.2,0.4c0,0.1,0,0.2-0.1,0.3c-0.1,0.1-0.2,0.2-0.3,0.2
				l0.5,0.7h-0.3l-0.5-0.7h-0.3v0.7H59.2z M59.4,15.7h0.4c0.1,0,0.2,0,0.3-0.1c0.1-0.1,0.1-0.1,0.1-0.2c0-0.1,0-0.2-0.1-0.2
				C60,15.1,59.9,15,59.8,15h-0.4V15.7z"/>
			<path d="M61.7,15.7c0-0.1,0-0.3,0.1-0.4c0-0.1,0.1-0.2,0.2-0.3c0.1-0.1,0.2-0.2,0.3-0.2s0.3-0.1,0.4-0.1c0.1,0,0.3,0,0.4,0.1
				c0.1,0,0.2,0.1,0.3,0.2c0.1,0.1,0.1,0.2,0.2,0.3c0,0.1,0.1,0.2,0.1,0.4c0,0.1,0,0.3-0.1,0.4c0,0.1-0.1,0.2-0.2,0.3
				c-0.1,0.1-0.2,0.2-0.3,0.2c-0.1,0-0.3,0.1-0.4,0.1c-0.1,0-0.3,0-0.4-0.1c-0.1,0-0.2-0.1-0.3-0.2c-0.1-0.1-0.1-0.2-0.2-0.3
				C61.7,16,61.7,15.8,61.7,15.7z M62,15.7c0,0.1,0,0.2,0.1,0.4s0.1,0.2,0.2,0.2c0.1,0.1,0.2,0.1,0.4,0.1c0.1,0,0.3,0,0.4-0.1
				c0.1-0.1,0.2-0.1,0.2-0.2c0.1-0.1,0.1-0.2,0.1-0.4c0-0.1,0-0.2-0.1-0.3c-0.1-0.1-0.1-0.2-0.2-0.2C62.9,15,62.8,15,62.7,15
				c-0.1,0-0.3,0-0.4,0.1s-0.2,0.1-0.2,0.2C62,15.5,62,15.6,62,15.7z"/>
			<path d="M65,16.6v-1.8h1.2V15h-0.9v0.6h0.8v0.2h-0.8v0.8H65z"/>
			<path d="M67.5,16.6v-1.8h1.2V15h-0.9v0.5h0.8v0.2h-0.8v0.6h0.9v0.2H67.5z"/>
			<path d="M70,16.4l0.1-0.2c0.2,0.1,0.3,0.2,0.5,0.2c0.1,0,0.2,0,0.3-0.1c0.1-0.1,0.1-0.1,0.1-0.2c0,0,0-0.1,0-0.1
				c0,0-0.1-0.1-0.1-0.1c0,0-0.1,0-0.1-0.1c-0.1,0-0.1,0-0.2,0c-0.1,0-0.1,0-0.2-0.1c-0.1,0-0.1,0-0.2-0.1c-0.1,0-0.1-0.1-0.1-0.1
				c0,0-0.1-0.1-0.1-0.1c0-0.1,0-0.1,0-0.2c0-0.1,0.1-0.3,0.2-0.3s0.3-0.1,0.4-0.1c0.1,0,0.2,0,0.3,0.1c0.1,0,0.2,0.1,0.3,0.2
				l-0.1,0.2c-0.1-0.1-0.1-0.1-0.2-0.1c-0.1,0-0.2,0-0.2,0c-0.1,0-0.1,0-0.2,0c-0.1,0-0.1,0-0.1,0.1c0,0-0.1,0.1-0.1,0.1
				c0,0,0,0.1,0,0.1c0,0,0.1,0.1,0.1,0.1c0,0,0.1,0,0.1,0.1c0.1,0,0.1,0,0.2,0c0.1,0,0.1,0,0.2,0.1c0.1,0,0.1,0,0.2,0.1
				s0.1,0.1,0.1,0.1c0,0,0.1,0.1,0.1,0.1c0,0.1,0,0.1,0,0.2c0,0.2-0.1,0.3-0.2,0.4c-0.1,0.1-0.3,0.2-0.5,0.2
				C70.4,16.6,70.2,16.6,70,16.4z"/>
			<path d="M72.5,16.4l0.1-0.2c0.2,0.1,0.3,0.2,0.5,0.2c0.1,0,0.2,0,0.3-0.1c0.1-0.1,0.1-0.1,0.1-0.2c0,0,0-0.1,0-0.1
				c0,0-0.1-0.1-0.1-0.1c0,0-0.1,0-0.1-0.1c-0.1,0-0.1,0-0.2,0c-0.1,0-0.1,0-0.2-0.1c-0.1,0-0.1,0-0.2-0.1c-0.1,0-0.1-0.1-0.1-0.1
				c0,0-0.1-0.1-0.1-0.1c0-0.1,0-0.1,0-0.2c0-0.1,0.1-0.3,0.2-0.3s0.3-0.1,0.4-0.1c0.1,0,0.2,0,0.3,0.1c0.1,0,0.2,0.1,0.3,0.2
				l-0.1,0.2c-0.1-0.1-0.1-0.1-0.2-0.1c-0.1,0-0.2,0-0.2,0c-0.1,0-0.1,0-0.2,0c-0.1,0-0.1,0-0.1,0.1c0,0-0.1,0.1-0.1,0.1
				c0,0,0,0.1,0,0.1c0,0,0.1,0.1,0.1,0.1c0,0,0.1,0,0.1,0.1c0.1,0,0.1,0,0.2,0c0.1,0,0.1,0,0.2,0.1c0.1,0,0.1,0,0.2,0.1
				s0.1,0.1,0.1,0.1c0,0,0.1,0.1,0.1,0.1c0,0.1,0,0.1,0,0.2c0,0.2-0.1,0.3-0.2,0.4c-0.1,0.1-0.3,0.2-0.5,0.2
				C72.9,16.6,72.7,16.6,72.5,16.4z"/>
			<path d="M75.2,16.6v-1.8h0.3v1.8H75.2z"/>
			<path d="M76.8,15.7c0-0.1,0-0.3,0.1-0.4c0-0.1,0.1-0.2,0.2-0.3c0.1-0.1,0.2-0.2,0.3-0.2s0.3-0.1,0.4-0.1s0.3,0,0.4,0.1
				c0.1,0,0.2,0.1,0.3,0.2c0.1,0.1,0.1,0.2,0.2,0.3c0,0.1,0.1,0.2,0.1,0.4c0,0.1,0,0.3-0.1,0.4c0,0.1-0.1,0.2-0.2,0.3
				c-0.1,0.1-0.2,0.2-0.3,0.2c-0.1,0-0.3,0.1-0.4,0.1s-0.3,0-0.4-0.1c-0.1,0-0.2-0.1-0.3-0.2c-0.1-0.1-0.1-0.2-0.2-0.3
				C76.9,16,76.8,15.8,76.8,15.7z M77.1,15.7c0,0.1,0,0.2,0.1,0.4s0.1,0.2,0.2,0.2c0.1,0.1,0.2,0.1,0.4,0.1c0.1,0,0.3,0,0.4-0.1
				c0.1-0.1,0.2-0.1,0.2-0.2c0.1-0.1,0.1-0.2,0.1-0.4c0-0.1,0-0.2-0.1-0.3c-0.1-0.1-0.1-0.2-0.2-0.2C78.1,15,77.9,15,77.8,15
				c-0.1,0-0.3,0-0.4,0.1c-0.1,0.1-0.2,0.1-0.2,0.2C77.1,15.5,77.1,15.6,77.1,15.7z"/>
			<path d="M80.1,16.6v-1.8h0.3l0.9,1.4v-1.4h0.3v1.8h-0.3l-0.9-1.4v1.4H80.1z"/>
			<path d="M82.8,16.6l0.7-1.8h0.3l0.7,1.8h-0.3l-0.2-0.4h-0.8l-0.2,0.4H82.8z M83.4,15.9H84l-0.3-0.8L83.4,15.9z"/>
			<path d="M85.8,16.6v-1.8h0.3v1.6H87v0.2H85.8z"/>
		</g>
		<g>
			<path d="M56.6,19.4v-1.7h0.6c0.2,0,0.3,0.1,0.4,0.2c0.1,0.1,0.2,0.2,0.2,0.4c0,0.2-0.1,0.3-0.2,0.4c-0.1,0.1-0.2,0.2-0.4,0.2
				h-0.4v0.6H56.6z M56.8,18.5h0.4c0.1,0,0.2,0,0.3-0.1c0.1-0.1,0.1-0.1,0.1-0.2c0-0.1,0-0.2-0.1-0.2c-0.1-0.1-0.1-0.1-0.3-0.1h-0.4
				V18.5z"/>
			<path d="M59,19.4v-1.7h0.2v0.7h0.8v-0.7h0.2v1.7h-0.2v-0.8h-0.8v0.8H59z"/>
			<path d="M61.7,18.5c0-0.1,0-0.2,0.1-0.3c0-0.1,0.1-0.2,0.2-0.3c0.1-0.1,0.2-0.1,0.3-0.2c0.1,0,0.2-0.1,0.4-0.1s0.3,0,0.4,0.1
				c0.1,0,0.2,0.1,0.3,0.2c0.1,0.1,0.1,0.2,0.2,0.3c0,0.1,0.1,0.2,0.1,0.3c0,0.1,0,0.2-0.1,0.4c0,0.1-0.1,0.2-0.2,0.3
				c-0.1,0.1-0.2,0.1-0.3,0.2c-0.1,0-0.2,0.1-0.4,0.1s-0.3,0-0.4-0.1c-0.1,0-0.2-0.1-0.3-0.2c-0.1-0.1-0.1-0.2-0.2-0.3
				C61.7,18.8,61.7,18.6,61.7,18.5z M61.9,18.5c0,0.1,0,0.2,0.1,0.3c0.1,0.1,0.1,0.2,0.2,0.2c0.1,0.1,0.2,0.1,0.4,0.1
				c0.1,0,0.2,0,0.3-0.1c0.1-0.1,0.2-0.1,0.2-0.2c0.1-0.1,0.1-0.2,0.1-0.3c0-0.1,0-0.2-0.1-0.3C63.1,18.1,63,18,62.9,18
				c-0.1-0.1-0.2-0.1-0.3-0.1c-0.1,0-0.2,0-0.4,0.1c-0.1,0.1-0.2,0.1-0.2,0.2C62,18.3,61.9,18.4,61.9,18.5z"/>
			<path d="M64.6,17.9v-0.2h1.3v0.2h-0.5v1.5h-0.2v-1.5H64.6z"/>
			<path d="M67,18.5c0-0.1,0-0.2,0.1-0.3c0-0.1,0.1-0.2,0.2-0.3c0.1-0.1,0.2-0.1,0.3-0.2c0.1,0,0.2-0.1,0.4-0.1s0.3,0,0.4,0.1
				c0.1,0,0.2,0.1,0.3,0.2c0.1,0.1,0.1,0.2,0.2,0.3c0,0.1,0.1,0.2,0.1,0.3c0,0.1,0,0.2-0.1,0.4c0,0.1-0.1,0.2-0.2,0.3
				c-0.1,0.1-0.2,0.1-0.3,0.2c-0.1,0-0.2,0.1-0.4,0.1s-0.3,0-0.4-0.1c-0.1,0-0.2-0.1-0.3-0.2c-0.1-0.1-0.1-0.2-0.2-0.3
				C67,18.8,67,18.6,67,18.5z M67.2,18.5c0,0.1,0,0.2,0.1,0.3c0.1,0.1,0.1,0.2,0.2,0.2c0.1,0.1,0.2,0.1,0.4,0.1c0.1,0,0.2,0,0.3-0.1
				c0.1-0.1,0.2-0.1,0.2-0.2c0.1-0.1,0.1-0.2,0.1-0.3c0-0.1,0-0.2-0.1-0.3c-0.1-0.1-0.1-0.2-0.2-0.2c-0.1-0.1-0.2-0.1-0.3-0.1
				c-0.1,0-0.2,0-0.4,0.1c-0.1,0.1-0.2,0.1-0.2,0.2C67.3,18.3,67.2,18.4,67.2,18.5z"/>
			<path d="M70,18.5c0-0.1,0-0.2,0.1-0.3c0-0.1,0.1-0.2,0.2-0.3c0.1-0.1,0.2-0.1,0.3-0.2c0.1,0,0.2-0.1,0.4-0.1
				c0.2,0,0.4,0.1,0.5,0.2L71.4,18c-0.1-0.1-0.3-0.1-0.4-0.1c-0.1,0-0.2,0-0.3,0.1c-0.1,0-0.2,0.1-0.2,0.1c-0.1,0.1-0.1,0.1-0.1,0.2
				c0,0.1,0,0.2,0,0.3c0,0.1,0,0.2,0,0.3c0,0.1,0.1,0.2,0.1,0.2c0.1,0.1,0.1,0.1,0.2,0.1c0.1,0,0.2,0.1,0.3,0.1c0.2,0,0.3,0,0.4-0.1
				v-0.4h-0.6v-0.2h0.8v0.7c-0.2,0.2-0.4,0.2-0.7,0.2c-0.1,0-0.3,0-0.4-0.1c-0.1,0-0.2-0.1-0.3-0.2c-0.1-0.1-0.1-0.2-0.2-0.3
				C70,18.8,70,18.6,70,18.5z"/>
			<path d="M72.9,19.4v-1.7h0.6c0.2,0,0.3,0.1,0.4,0.2c0.1,0.1,0.2,0.2,0.2,0.4c0,0.1,0,0.2-0.1,0.3s-0.2,0.2-0.3,0.2l0.5,0.7h-0.3
				l-0.5-0.6h-0.3v0.6H72.9z M73.2,18.5h0.4c0.1,0,0.2,0,0.3-0.1c0.1-0.1,0.1-0.1,0.1-0.2c0-0.1,0-0.2-0.1-0.2
				c-0.1-0.1-0.1-0.1-0.3-0.1h-0.4V18.5z"/>
			<path d="M75.3,19.4l0.7-1.7h0.3l0.7,1.7h-0.2L76.5,19h-0.8l-0.2,0.4H75.3z M75.8,18.8h0.6l-0.3-0.8L75.8,18.8z"/>
			<path d="M78.1,19.4v-1.7h0.6c0.2,0,0.3,0.1,0.4,0.2c0.1,0.1,0.2,0.2,0.2,0.4c0,0.2-0.1,0.3-0.2,0.4c-0.1,0.1-0.2,0.2-0.4,0.2
				h-0.4v0.6H78.1z M78.4,18.5h0.4c0.1,0,0.2,0,0.3-0.1c0.1-0.1,0.1-0.1,0.1-0.2c0-0.1,0-0.2-0.1-0.2c-0.1-0.1-0.1-0.1-0.3-0.1h-0.4
				V18.5z"/>
			<path d="M80.6,19.4v-1.7h0.2v0.7h0.8v-0.7H82v1.7h-0.2v-0.8h-0.8v0.8H80.6z"/>
			<path d="M83.4,19.4v-1.7h1.1v0.2h-0.9v0.5h0.8v0.2h-0.8v0.6h0.9v0.2H83.4z"/>
			<path d="M85.8,19.4v-1.7h0.6c0.2,0,0.3,0.1,0.4,0.2c0.1,0.1,0.2,0.2,0.2,0.4c0,0.1,0,0.2-0.1,0.3c-0.1,0.1-0.2,0.2-0.3,0.2
				l0.5,0.7h-0.3l-0.5-0.6H86v0.6H85.8z M86,18.5h0.4c0.1,0,0.2,0,0.3-0.1c0.1-0.1,0.1-0.1,0.1-0.2c0-0.1,0-0.2-0.1-0.2
				c-0.1-0.1-0.1-0.1-0.3-0.1H86V18.5z"/>
		</g>
	</g>
	<path d="M0,10.8V0.3h1.5l3.4,5.3l3.4-5.3h1.5v10.5H8.4V2.5L5.3,7.4H4.6L1.4,2.5v8.3H0z"/>
	<path d="M44.9,10.8V0.3h1.5l3.4,5.3l3.4-5.3h1.5v10.5h-1.4V2.5l-3.2,4.9h-0.7l-3.2-4.9v8.3H44.9z"/>
	<path d="M56.6,5.5c0-0.8,0.1-1.5,0.4-2.2s0.6-1.3,1.1-1.8c0.5-0.5,1.1-0.9,1.8-1.2C60.5,0.1,61.3,0,62.2,0s1.6,0.1,2.4,0.4
		c0.7,0.3,1.3,0.7,1.8,1.2c0.5,0.5,0.8,1.1,1.1,1.8s0.4,1.4,0.4,2.2c0,0.8-0.1,1.5-0.4,2.2s-0.6,1.3-1.1,1.8s-1.1,0.9-1.8,1.2
		C63.8,10.9,63,11,62.2,11s-1.6-0.1-2.4-0.4c-0.7-0.3-1.3-0.7-1.8-1.2S57.2,8.3,57,7.7S56.6,6.3,56.6,5.5z M58.1,5.5
		c0,0.8,0.2,1.5,0.5,2.1C58.9,8.2,59.4,8.7,60,9c0.6,0.4,1.4,0.5,2.2,0.5c0.8,0,1.5-0.2,2.2-0.5c0.6-0.4,1.1-0.8,1.4-1.5
		c0.3-0.6,0.5-1.3,0.5-2.1c0-0.8-0.2-1.4-0.5-2.1C65.4,2.8,65,2.4,64.3,2S63,1.4,62.2,1.4c-0.8,0-1.5,0.2-2.2,0.5s-1.1,0.9-1.4,1.5
		S58.1,4.8,58.1,5.5z"/>
	<path d="M68.1,0.2h1.6L73,9l3.3-8.8h1.6l-4,10.6h-1.7L68.1,0.2z"/>
	<path d="M77.3,10.8l4-10.6H83l4,10.6h-1.5l-1-2.6h-4.8l-1,2.6H77.3z M80.2,6.9h3.9l-1.9-5L80.2,6.9z"/>
	<path d="M16.9,0.2h-1.7l-4,10.6h1.5l1-2.6h4.8l1,2.6h0v7.8c0,0.5-0.1,1-0.4,1.2s-0.6,0.4-1.1,0.4c-0.5,0-1-0.2-1.5-0.6l-0.7,1
		c0.7,0.7,1.5,1,2.4,1c0.5,0,0.8-0.1,1.2-0.2c0.3-0.1,0.6-0.3,0.8-0.5s0.4-0.5,0.5-0.8c0.1-0.3,0.2-0.7,0.2-1.1
		c0-0.4,0.1-0.8,0.1-1.3v-6.9L16.9,0.2z M14.1,6.9L16,2l1.9,5H14.1z"/>
	<path d="M25.3,5.3l4.8-5.1h-1.4l-5,5v-5h-1.5v10.6v6.8c0,0.8,0.2,1.4,0.5,2.1c0.3,0.6,0.8,1.1,1.4,1.5s1.4,0.5,2.2,0.5
		c0.6,0,1.2-0.1,1.7-0.3c0.5-0.2,1-0.5,1.3-0.9s0.6-0.8,0.8-1.3s0.3-1,0.3-1.6v-6.8L25.3,5.3z M29,17.6c0,0.7-0.2,1.3-0.7,1.8
		c-0.5,0.5-1.1,0.8-1.9,0.8c-0.8,0-1.4-0.3-1.9-0.8c-0.5-0.5-0.7-1.1-0.7-1.8v-6.8h0V5.5l5.2,5.3V17.6z"/>
	<polygon points="40.9,0.2 40.9,10.8 40.9,21.4 42.4,21.4 42.4,10.8 42.4,10.8 42.4,0.2 	"/>
	<path d="M45.2,21.4l4-10.6h1.7l4,10.6h-1.5l-1-2.6h-4.8l-1,2.6H45.2z M48.1,17.5H52l-1.9-5L48.1,17.5z"/>
	<path d="M33.8,10.8c0.5,0.1,1,0.2,1.6,0.2c1.1,0,2-0.3,2.7-0.9c0.8-0.6,1.1-1.4,1.1-2.3c0-0.4-0.1-0.8-0.2-1.1s-0.3-0.6-0.6-0.8
		c-0.2-0.2-0.5-0.4-0.8-0.6C37.3,5.2,37,5.1,36.7,5c-0.3-0.1-0.7-0.2-1-0.3s-0.6-0.2-0.9-0.3S34.2,4.2,33.9,4
		c-0.2-0.1-0.4-0.3-0.5-0.5s-0.2-0.4-0.2-0.7c0-0.3,0.1-0.6,0.3-0.9c0.2-0.2,0.5-0.4,0.8-0.5c0.3-0.1,0.6-0.2,1-0.2
		c0.5,0,1,0.1,1.4,0.3c0.4,0.2,0.9,0.5,1.3,0.9l0.8-1.1c-0.5-0.5-1.1-0.8-1.6-1C36.6,0.1,36,0,35.3,0c-1,0-1.8,0.3-2.5,0.8
		c-0.7,0.5-1,1.2-1,2.1c0,0.4,0.1,0.8,0.2,1.2c0.1,0.3,0.3,0.6,0.5,0.8s0.5,0.4,0.8,0.6c0.3,0.2,0.6,0.3,0.9,0.4
		c0.3,0.1,0.7,0.2,1,0.3c0.3,0.1,0.6,0.2,0.9,0.3c0.3,0.1,0.6,0.2,0.8,0.3s0.4,0.3,0.5,0.5c0.1,0.2,0.2,0.4,0.2,0.7
		c0,0.5-0.2,0.9-0.7,1.3c-0.5,0.4-1,0.5-1.7,0.5c-1.2,0-2.2-0.4-3.1-1.2l0,0l0,0v0l0,0v1.7c0,0,0,0,0,0v11.2h6.9V20h-5.4V10.8z"/>
</g>
</svg>
