<?xml version="1.0" encoding="utf-8"?>
<!-- Generator: Adobe Illustrator 21.0.0, SVG Export Plug-In . SVG Version: 6.00 Build 0)  -->
<svg version="1.1" id="Слой_1" xmlns="http://www.w3.org/2000/svg" xmlns:xlink="http://www.w3.org/1999/xlink" x="0px" y="0px"
	 viewBox="0 0 87.1 21.6" style="enable-background:new 0 0 87.1 21.6;" xml:space="preserve">
<style type="text/css">
	.st0{fill:#F6F6F6;}
</style>
<path class="st0" d="M0,10.8V0.3h1.5l3.4,5.3l3.4-5.3h1.5v10.5H8.4V2.5L5.3,7.4H4.6L1.4,2.5v8.3H0z"/>
<path class="st0" d="M44.9,10.8V0.3h1.5l3.4,5.3l3.4-5.3h1.5v10.5h-1.4V2.5l-3.2,4.9h-0.7l-3.2-4.9v8.3H44.9z"/>
<path class="st0" d="M56.6,5.5c0-0.8,0.1-1.5,0.4-2.2s0.6-1.3,1.1-1.8c0.5-0.5,1.1-0.9,1.8-1.2C60.5,0.1,61.3,0,62.2,0
	s1.6,0.1,2.4,0.4c0.7,0.3,1.3,0.7,1.8,1.2c0.5,0.5,0.8,1.1,1.1,1.8s0.4,1.4,0.4,2.2c0,0.8-0.1,1.5-0.4,2.2s-0.6,1.3-1.1,1.8
	s-1.1,0.9-1.8,1.2C63.8,10.9,63,11,62.2,11s-1.6-0.1-2.4-0.4c-0.7-0.3-1.3-0.7-1.8-1.2S57.2,8.3,57,7.7S56.6,6.3,56.6,5.5z
	 M58.1,5.5c0,0.8,0.2,1.5,0.5,2.1C58.9,8.2,59.4,8.7,60,9c0.6,0.4,1.4,0.5,2.2,0.5c0.8,0,1.5-0.2,2.2-0.5c0.6-0.4,1.1-0.8,1.4-1.5
	c0.3-0.6,0.5-1.3,0.5-2.1c0-0.8-0.2-1.4-0.5-2.1C65.4,2.8,65,2.4,64.3,2S63,1.4,62.2,1.4c-0.8,0-1.5,0.2-2.2,0.5s-1.1,0.9-1.4,1.5
	S58.1,4.8,58.1,5.5z"/>
<path class="st0" d="M68.1,0.2h1.6L73,9l3.3-8.8h1.6l-4,10.6h-1.7L68.1,0.2z"/>
<path class="st0" d="M77.3,10.8l4-10.6H83l4,10.6h-1.5l-1-2.6h-4.8l-1,2.6H77.3z M80.2,6.9h3.9l-1.9-5L80.2,6.9z"/>
<path class="st0" d="M16.9,0.2h-1.7l-4,10.6h1.5l1-2.6h4.8l1,2.6h0v7.8c0,0.5-0.1,1-0.4,1.2s-0.6,0.4-1.1,0.4c-0.5,0-1-0.2-1.5-0.6
	l-0.7,1c0.7,0.7,1.5,1,2.4,1c0.5,0,0.8-0.1,1.2-0.2c0.3-0.1,0.6-0.3,0.8-0.5s0.4-0.5,0.5-0.8c0.1-0.3,0.2-0.7,0.2-1.1
	c0-0.4,0.1-0.8,0.1-1.3v-6.9L16.9,0.2z M14.1,6.9L16,2l1.9,5H14.1z"/>
<path class="st0" d="M25.3,5.3l4.8-5.1h-1.4l-5,5v-5h-1.5v10.6v6.8c0,0.8,0.2,1.4,0.5,2.1c0.3,0.6,0.8,1.1,1.4,1.5s1.4,0.5,2.2,0.5
	c0.6,0,1.2-0.1,1.7-0.3c0.5-0.2,1-0.5,1.3-0.9s0.6-0.8,0.8-1.3s0.3-1,0.3-1.6v-6.8L25.3,5.3z M29,17.6c0,0.7-0.2,1.3-0.7,1.8
	c-0.5,0.5-1.1,0.8-1.9,0.8c-0.8,0-1.4-0.3-1.9-0.8c-0.5-0.5-0.7-1.1-0.7-1.8v-6.8h0V5.5l5.2,5.3V17.6z"/>
<polygon class="st0" points="40.9,0.2 40.9,10.8 40.9,21.4 42.4,21.4 42.4,10.8 42.4,10.8 42.4,0.2 "/>
<path class="st0" d="M45.2,21.4l4-10.6h1.7l4,10.6h-1.5l-1-2.6h-4.8l-1,2.6H45.2z M48.1,17.5H52l-1.9-5L48.1,17.5z"/>
<path class="st0" d="M33.8,10.8c0.5,0.1,1,0.2,1.6,0.2c1.1,0,2-0.3,2.7-0.9c0.8-0.6,1.1-1.4,1.1-2.3c0-0.4-0.1-0.8-0.2-1.1
	s-0.3-0.6-0.6-0.8c-0.2-0.2-0.5-0.4-0.8-0.6C37.3,5.2,37,5.1,36.7,5c-0.3-0.1-0.7-0.2-1-0.3s-0.6-0.2-0.9-0.3S34.2,4.2,33.9,4
	c-0.2-0.1-0.4-0.3-0.5-0.5s-0.2-0.4-0.2-0.7c0-0.3,0.1-0.6,0.3-0.9c0.2-0.2,0.5-0.4,0.8-0.5c0.3-0.1,0.6-0.2,1-0.2
	c0.5,0,1,0.1,1.4,0.3c0.4,0.2,0.9,0.5,1.3,0.9l0.8-1.1c-0.5-0.5-1.1-0.8-1.6-1C36.6,0.1,36,0,35.3,0c-1,0-1.8,0.3-2.5,0.8
	c-0.7,0.5-1,1.2-1,2.1c0,0.4,0.1,0.8,0.2,1.2c0.1,0.3,0.3,0.6,0.5,0.8s0.5,0.4,0.8,0.6c0.3,0.2,0.6,0.3,0.9,0.4
	c0.3,0.1,0.7,0.2,1,0.3c0.3,0.1,0.6,0.2,0.9,0.3c0.3,0.1,0.6,0.2,0.8,0.3s0.4,0.3,0.5,0.5c0.1,0.2,0.2,0.4,0.2,0.7
	c0,0.5-0.2,0.9-0.7,1.3c-0.5,0.4-1,0.5-1.7,0.5c-1.2,0-2.2-0.4-3.1-1.2l0,0l0,0v0l0,0v1.7c0,0,0,0,0,0v11.2h6.9V20h-5.4V10.8z"/>
</svg>
